<svg xmlns="http://www.w3.org/2000/svg" width="1200" height="420" viewBox="0 0 1200 420" role="img" aria-labelledby="title desc">
  <title id="title">LUMVEA Educación</title>
  <desc id="desc">Logo con un libro abierto que forma un horizonte luminoso.</desc>
  <rect width="1200" height="420" fill="#FFFFFF"/>
  <g transform="translate(72 88)">
    <path d="M0 164C54 105 123 105 177 164V222C123 174 54 174 0 222V164Z" fill="#173B76"/>
    <path d="M177 164C231 105 300 105 354 164V222C300 174 231 174 177 222V164Z" fill="#2767B7"/>
    <path d="M177 164V222" stroke="#FFFFFF" stroke-width="8" stroke-linecap="round"/>
    <path d="M55 127C90 72 150 45 221 45C267 45 309 57 342 80" stroke="#F26B33" stroke-width="18" stroke-linecap="round"/>
    <circle cx="274" cy="54" r="17" fill="#F26B33"/>
    <path d="M178 21V0M144 31L131 10M211 31L224 10" stroke="#173B76" stroke-width="10" stroke-linecap="round"/>
  </g>
  <g transform="translate(500 128)">
    <text x="0" y="80" fill="#173B76" font-family="Arial, Helvetica, sans-serif" font-size="98" font-weight="700" letter-spacing="10">LUMVEA</text>
    <rect x="2" y="107" width="430" height="5" fill="#F26B33"/>
    <text x="3" y="155" fill="#53677F" font-family="Arial, Helvetica, sans-serif" font-size="22" font-weight="600" letter-spacing="2">PRIMARIA · SECUNDARIA · PREUNIVERSITARIA</text>
  </g>
</svg>
